<?xml version="1.0" encoding="UTF-8" standalone="no"?>
<svg
   width="213.893pt"
   height="199.454pt"
   viewBox="0 0 213.893 199.454"
   version="1.1"
   id="svg89"
   sodipodi:docname="lid_driven_cavity.pdf"
   xmlns:inkscape="http://www.inkscape.org/namespaces/inkscape"
   xmlns:sodipodi="http://sodipodi.sourceforge.net/DTD/sodipodi-0.dtd"
   xmlns:xlink="http://www.w3.org/1999/xlink"
   xmlns="http://www.w3.org/2000/svg"
   xmlns:svg="http://www.w3.org/2000/svg">
  <sodipodi:namedview
     id="namedview89"
     pagecolor="#ffffff"
     bordercolor="#000000"
     borderopacity="0.25"
     inkscape:showpageshadow="2"
     inkscape:pageopacity="0.0"
     inkscape:pagecheckerboard="0"
     inkscape:deskcolor="#d1d1d1"
     inkscape:document-units="pt" />
  <defs
     id="defs38">
    <g
       id="g38">
      <g
         id="glyph-0-0">
        <path
           d="M 5.609375 -3.15625 C 5.6875 -3.4375 5.796875 -3.921875 5.796875 -3.984375 C 5.796875 -4.203125 5.640625 -4.421875 5.328125 -4.421875 C 5.171875 -4.421875 4.8125 -4.34375 4.671875 -3.890625 C 4.640625 -3.765625 4.1875 -1.953125 4.109375 -1.625 C 4.046875 -1.390625 3.984375 -1.109375 3.953125 -0.921875 C 3.78125 -0.6875 3.390625 -0.28125 2.875 -0.28125 C 2.296875 -0.28125 2.28125 -0.78125 2.28125 -1 C 2.28125 -1.609375 2.59375 -2.390625 2.875 -3.109375 C 2.96875 -3.375 3 -3.4375 3 -3.609375 C 3 -4.1875 2.421875 -4.5 1.875 -4.5 C 0.8125 -4.5 0.3125 -3.15625 0.3125 -2.953125 C 0.3125 -2.8125 0.46875 -2.8125 0.5625 -2.8125 C 0.671875 -2.8125 0.75 -2.8125 0.78125 -2.9375 C 1.109375 -4.046875 1.65625 -4.140625 1.8125 -4.140625 C 1.890625 -4.140625 1.984375 -4.140625 1.984375 -3.9375 C 1.984375 -3.703125 1.859375 -3.421875 1.828125 -3.3125 C 1.40625 -2.265625 1.21875 -1.703125 1.21875 -1.21875 C 1.21875 -0.078125 2.21875 0.078125 2.796875 0.078125 C 3.09375 0.078125 3.53125 0.046875 4.0625 -0.46875 C 4.390625 0.015625 4.96875 0.078125 5.203125 0.078125 C 5.578125 0.078125 5.859375 -0.125 6.078125 -0.484375 C 6.3125 -0.890625 6.453125 -1.421875 6.453125 -1.46875 C 6.453125 -1.609375 6.296875 -1.609375 6.203125 -1.609375 C 6.09375 -1.609375 6.0625 -1.609375 6.015625 -1.5625 C 5.984375 -1.546875 5.984375 -1.53125 5.9375 -1.28125 C 5.734375 -0.5 5.515625 -0.28125 5.25 -0.28125 C 5.109375 -0.28125 5.03125 -0.375 5.03125 -0.640625 C 5.03125 -0.8125 5.0625 -0.984375 5.15625 -1.375 C 5.234375 -1.65625 5.328125 -2.046875 5.390625 -2.265625 Z M 5.609375 -3.15625 "
           id="path1" />
      </g>
      <g
         id="glyph-1-0">
        <path
           d="M 6.84375 -3.265625 C 7 -3.265625 7.1875 -3.265625 7.1875 -3.453125 C 7.1875 -3.65625 7 -3.65625 6.859375 -3.65625 L 0.890625 -3.65625 C 0.75 -3.65625 0.5625 -3.65625 0.5625 -3.453125 C 0.5625 -3.265625 0.75 -3.265625 0.890625 -3.265625 Z M 6.859375 -1.328125 C 7 -1.328125 7.1875 -1.328125 7.1875 -1.53125 C 7.1875 -1.71875 7 -1.71875 6.84375 -1.71875 L 0.890625 -1.71875 C 0.75 -1.71875 0.5625 -1.71875 0.5625 -1.53125 C 0.5625 -1.328125 0.75 -1.328125 0.890625 -1.328125 Z M 6.859375 -1.328125 "
           id="path2" />
      </g>
      <g
         id="glyph-1-1">
        <path
           d="M 3.296875 2.390625 C 3.296875 2.359375 3.296875 2.34375 3.125 2.171875 C 1.890625 0.921875 1.5625 -0.96875 1.5625 -2.5 C 1.5625 -4.234375 1.9375 -5.96875 3.171875 -7.203125 C 3.296875 -7.328125 3.296875 -7.34375 3.296875 -7.375 C 3.296875 -7.453125 3.265625 -7.484375 3.203125 -7.484375 C 3.09375 -7.484375 2.203125 -6.796875 1.609375 -5.53125 C 1.109375 -4.4375 0.984375 -3.328125 0.984375 -2.5 C 0.984375 -1.71875 1.09375 -0.515625 1.640625 0.625 C 2.25 1.84375 3.09375 2.5 3.203125 2.5 C 3.265625 2.5 3.296875 2.46875 3.296875 2.390625 Z M 3.296875 2.390625 "
           id="path3" />
      </g>
      <g
         id="glyph-1-2">
        <path
           d="M 2.9375 -6.375 C 2.9375 -6.625 2.9375 -6.640625 2.703125 -6.640625 C 2.078125 -6 1.203125 -6 0.890625 -6 L 0.890625 -5.6875 C 1.09375 -5.6875 1.671875 -5.6875 2.1875 -5.953125 L 2.1875 -0.78125 C 2.1875 -0.421875 2.15625 -0.3125 1.265625 -0.3125 L 0.953125 -0.3125 L 0.953125 0 C 1.296875 -0.03125 2.15625 -0.03125 2.5625 -0.03125 C 2.953125 -0.03125 3.828125 -0.03125 4.171875 0 L 4.171875 -0.3125 L 3.859375 -0.3125 C 2.953125 -0.3125 2.9375 -0.421875 2.9375 -0.78125 Z M 2.9375 -6.375 "
           id="path4" />
      </g>
      <g
         id="glyph-1-3">
        <path
           d="M 4.578125 -3.1875 C 4.578125 -3.984375 4.53125 -4.78125 4.1875 -5.515625 C 3.734375 -6.484375 2.90625 -6.640625 2.5 -6.640625 C 1.890625 -6.640625 1.171875 -6.375 0.75 -5.453125 C 0.4375 -4.765625 0.390625 -3.984375 0.390625 -3.1875 C 0.390625 -2.4375 0.421875 -1.546875 0.84375 -0.78125 C 1.265625 0.015625 2 0.21875 2.484375 0.21875 C 3.015625 0.21875 3.78125 0.015625 4.21875 -0.9375 C 4.53125 -1.625 4.578125 -2.40625 4.578125 -3.1875 Z M 2.484375 0 C 2.09375 0 1.5 -0.25 1.328125 -1.203125 C 1.21875 -1.796875 1.21875 -2.71875 1.21875 -3.3125 C 1.21875 -3.953125 1.21875 -4.609375 1.296875 -5.140625 C 1.484375 -6.328125 2.234375 -6.421875 2.484375 -6.421875 C 2.8125 -6.421875 3.46875 -6.234375 3.65625 -5.25 C 3.765625 -4.6875 3.765625 -3.9375 3.765625 -3.3125 C 3.765625 -2.5625 3.765625 -1.890625 3.65625 -1.25 C 3.5 -0.296875 2.9375 0 2.484375 0 Z M 2.484375 0 "
           id="path5" />
      </g>
      <g
         id="glyph-1-4">
        <path
           d="M 2.875 -2.5 C 2.875 -3.265625 2.765625 -4.46875 2.21875 -5.609375 C 1.625 -6.828125 0.765625 -7.484375 0.671875 -7.484375 C 0.609375 -7.484375 0.5625 -7.4375 0.5625 -7.375 C 0.5625 -7.34375 0.5625 -7.328125 0.75 -7.140625 C 1.734375 -6.15625 2.296875 -4.578125 2.296875 -2.5 C 2.296875 -0.78125 1.9375 0.96875 0.703125 2.21875 C 0.5625 2.34375 0.5625 2.359375 0.5625 2.390625 C 0.5625 2.453125 0.609375 2.5 0.671875 2.5 C 0.765625 2.5 1.671875 1.8125 2.25 0.546875 C 2.765625 -0.546875 2.875 -1.65625 2.875 -2.5 Z M 2.875 -2.5 "
           id="path6" />
      </g>
      <g
         id="glyph-1-5">
        <path
           d="M 5.515625 -6.78125 L 0.328125 -6.78125 L 0.328125 -6.46875 L 0.5625 -6.46875 C 1.328125 -6.46875 1.359375 -6.359375 1.359375 -6 L 1.359375 -0.78125 C 1.359375 -0.421875 1.328125 -0.3125 0.5625 -0.3125 L 0.328125 -0.3125 L 0.328125 0 C 0.671875 -0.03125 1.453125 -0.03125 1.84375 -0.03125 C 2.25 -0.03125 3.15625 -0.03125 3.515625 0 L 3.515625 -0.3125 L 3.1875 -0.3125 C 2.25 -0.3125 2.25 -0.4375 2.25 -0.78125 L 2.25 -6.078125 C 2.25 -6.40625 2.265625 -6.46875 2.734375 -6.46875 L 3.765625 -6.46875 C 5.1875 -6.46875 5.390625 -5.875 5.546875 -4.53125 L 5.796875 -4.53125 Z M 5.515625 -6.78125 "
           id="path7" />
      </g>
      <g
         id="glyph-1-6">
        <path
           d="M 1.265625 -0.765625 L 2.328125 -1.796875 C 3.875 -3.171875 4.46875 -3.703125 4.46875 -4.703125 C 4.46875 -5.84375 3.578125 -6.640625 2.359375 -6.640625 C 1.234375 -6.640625 0.5 -5.71875 0.5 -4.828125 C 0.5 -4.28125 1 -4.28125 1.03125 -4.28125 C 1.203125 -4.28125 1.546875 -4.390625 1.546875 -4.8125 C 1.546875 -5.0625 1.359375 -5.328125 1.015625 -5.328125 C 0.9375 -5.328125 0.921875 -5.328125 0.890625 -5.3125 C 1.109375 -5.96875 1.65625 -6.328125 2.234375 -6.328125 C 3.140625 -6.328125 3.5625 -5.515625 3.5625 -4.703125 C 3.5625 -3.90625 3.078125 -3.125 2.515625 -2.5 L 0.609375 -0.375 C 0.5 -0.265625 0.5 -0.234375 0.5 0 L 4.203125 0 L 4.46875 -1.734375 L 4.234375 -1.734375 C 4.171875 -1.4375 4.109375 -1 4 -0.84375 C 3.9375 -0.765625 3.28125 -0.765625 3.0625 -0.765625 Z M 1.265625 -0.765625 "
           id="path8" />
      </g>
      <g
         id="glyph-2-0">
        <path
           d="M 2.03125 -0.015625 C 2.03125 -0.671875 1.78125 -1.0625 1.390625 -1.0625 C 1.0625 -1.0625 0.859375 -0.8125 0.859375 -0.53125 C 0.859375 -0.265625 1.0625 0 1.390625 0 C 1.5 0 1.640625 -0.046875 1.734375 -0.125 C 1.765625 -0.15625 1.78125 -0.15625 1.78125 -0.15625 C 1.796875 -0.15625 1.796875 -0.15625 1.796875 -0.015625 C 1.796875 0.734375 1.453125 1.328125 1.125 1.65625 C 1.015625 1.765625 1.015625 1.78125 1.015625 1.8125 C 1.015625 1.890625 1.0625 1.921875 1.109375 1.921875 C 1.21875 1.921875 2.03125 1.15625 2.03125 -0.015625 Z M 2.03125 -0.015625 "
           id="path9" />
      </g>
      <g
         id="glyph-3-0">
        <path
           d="M 1.4375 -4.84375 L 0.390625 -4.765625 L 0.390625 -4.515625 C 0.859375 -4.515625 0.90625 -4.453125 0.90625 -4.125 L 0.90625 -0.546875 C 0.90625 -0.25 0.84375 -0.25 0.390625 -0.25 L 0.390625 0 C 0.40625 0 0.890625 -0.03125 1.171875 -0.03125 C 1.4375 -0.03125 1.6875 -0.015625 1.953125 0 L 1.953125 -0.25 C 1.5 -0.25 1.4375 -0.25 1.4375 -0.546875 Z M 1.4375 -4.84375 "
           id="path10" />
      </g>
      <g
         id="glyph-3-1">
        <path
           d="M 1.46875 -4.296875 C 1.46875 -4.5 1.296875 -4.703125 1.0625 -4.703125 C 0.859375 -4.703125 0.671875 -4.53125 0.671875 -4.296875 C 0.671875 -4.046875 0.875 -3.890625 1.0625 -3.890625 C 1.296875 -3.890625 1.46875 -4.0625 1.46875 -4.296875 Z M 0.40625 -3 L 0.40625 -2.75 C 0.84375 -2.75 0.90625 -2.703125 0.90625 -2.359375 L 0.90625 -0.546875 C 0.90625 -0.25 0.84375 -0.25 0.390625 -0.25 L 0.390625 0 C 0.40625 0 0.890625 -0.03125 1.171875 -0.03125 C 1.421875 -0.03125 1.671875 -0.015625 1.90625 0 L 1.90625 -0.25 C 1.5 -0.25 1.4375 -0.25 1.4375 -0.546875 L 1.4375 -3.078125 Z M 0.40625 -3 "
           id="path11" />
      </g>
      <g
         id="glyph-3-2">
        <path
           d="M 2.484375 -4.765625 L 2.484375 -4.515625 C 2.953125 -4.515625 3 -4.453125 3 -4.125 L 3 -2.671875 C 2.75 -2.921875 2.40625 -3.078125 2.03125 -3.078125 C 1.09375 -3.078125 0.328125 -2.375 0.328125 -1.5 C 0.328125 -0.625 1.0625 0.0625 1.9375 0.0625 C 2.515625 0.0625 2.859375 -0.234375 2.96875 -0.359375 L 2.96875 0.0625 L 4.046875 0 L 4.046875 -0.25 C 3.578125 -0.25 3.53125 -0.296875 3.53125 -0.640625 L 3.53125 -4.84375 Z M 2.96875 -0.734375 C 2.796875 -0.40625 2.4375 -0.125 1.984375 -0.125 C 1.59375 -0.125 1.3125 -0.359375 1.171875 -0.5625 C 1.03125 -0.765625 0.953125 -1.046875 0.953125 -1.484375 C 0.953125 -1.65625 0.953125 -2.171875 1.234375 -2.5 C 1.515625 -2.8125 1.859375 -2.875 2.0625 -2.875 C 2.390625 -2.875 2.703125 -2.71875 2.890625 -2.46875 C 2.96875 -2.359375 2.96875 -2.359375 2.96875 -2.21875 Z M 2.96875 -0.734375 "
           id="path12" />
      </g>
      <g
         id="glyph-3-3">
        <path
           d="M 4.875 -2.328125 C 5.015625 -2.671875 5.25 -2.75 5.46875 -2.75 L 5.46875 -3 C 5.28125 -2.984375 5.15625 -2.96875 4.96875 -2.96875 C 4.75 -2.96875 4.484375 -2.984375 4.28125 -3 L 4.28125 -2.75 C 4.515625 -2.75 4.640625 -2.609375 4.640625 -2.453125 C 4.640625 -2.390625 4.640625 -2.375 4.59375 -2.28125 L 3.921875 -0.546875 L 3.171875 -2.453125 C 3.15625 -2.484375 3.140625 -2.53125 3.140625 -2.578125 C 3.140625 -2.734375 3.3125 -2.75 3.515625 -2.75 L 3.515625 -3 C 3.265625 -2.984375 3.015625 -2.96875 2.765625 -2.96875 C 2.5625 -2.96875 2.34375 -2.984375 2.140625 -3 L 2.140625 -2.75 C 2.3125 -2.75 2.453125 -2.75 2.546875 -2.703125 C 2.640625 -2.625 2.703125 -2.390625 2.703125 -2.390625 C 2.703125 -2.375 2.6875 -2.328125 2.671875 -2.3125 L 2.015625 -0.640625 L 1.3125 -2.453125 C 1.28125 -2.546875 1.28125 -2.546875 1.28125 -2.578125 C 1.28125 -2.75 1.53125 -2.75 1.65625 -2.75 L 1.65625 -3 C 1.640625 -3 1.140625 -2.96875 0.859375 -2.96875 C 0.640625 -2.96875 0.421875 -2.984375 0.203125 -3 L 0.203125 -2.75 C 0.484375 -2.75 0.640625 -2.75 0.703125 -2.546875 L 1.671875 -0.09375 C 1.71875 0.015625 1.734375 0.0625 1.875 0.0625 C 2 0.0625 2.015625 0.015625 2.046875 -0.078125 L 2.84375 -2.0625 L 3.609375 -0.09375 C 3.65625 0 3.671875 0.0625 3.8125 0.0625 C 3.9375 0.0625 3.953125 0.015625 4 -0.09375 Z M 4.875 -2.328125 "
           id="path13" />
      </g>
      <g
         id="glyph-3-4">
        <path
           d="M 3.109375 -1.875 C 3.109375 -2.234375 3.109375 -2.5 2.78125 -2.765625 C 2.5 -3 2.171875 -3.109375 1.75 -3.109375 C 1.09375 -3.109375 0.625 -2.859375 0.625 -2.4375 C 0.625 -2.203125 0.78125 -2.09375 0.96875 -2.09375 C 1.15625 -2.09375 1.296875 -2.234375 1.296875 -2.421875 C 1.296875 -2.53125 1.234375 -2.6875 1.046875 -2.734375 C 1.296875 -2.90625 1.703125 -2.90625 1.734375 -2.90625 C 2.125 -2.90625 2.5625 -2.65625 2.5625 -2.0625 L 2.5625 -1.859375 C 2.171875 -1.84375 1.71875 -1.8125 1.203125 -1.625 C 0.578125 -1.40625 0.390625 -1.015625 0.390625 -0.703125 C 0.390625 -0.109375 1.109375 0.0625 1.609375 0.0625 C 2.15625 0.0625 2.484375 -0.25 2.640625 -0.515625 C 2.65625 -0.234375 2.84375 0.03125 3.171875 0.03125 C 3.1875 0.03125 3.859375 0.03125 3.859375 -0.625 L 3.859375 -1.015625 L 3.625 -1.015625 L 3.625 -0.640625 C 3.625 -0.5625 3.625 -0.234375 3.359375 -0.234375 C 3.109375 -0.234375 3.109375 -0.5625 3.109375 -0.640625 Z M 2.5625 -0.984375 C 2.5625 -0.3125 1.96875 -0.125 1.65625 -0.125 C 1.296875 -0.125 0.96875 -0.359375 0.96875 -0.703125 C 0.96875 -1.09375 1.296875 -1.625 2.5625 -1.671875 Z M 2.5625 -0.984375 "
           id="path14" />
      </g>
      <g
         id="glyph-4-0">
        <path
           d="M -6.78125 -5.515625 L -6.78125 -0.328125 L -6.46875 -0.328125 L -6.46875 -0.5625 C -6.46875 -1.328125 -6.359375 -1.359375 -6 -1.359375 L -0.78125 -1.359375 C -0.421875 -1.359375 -0.3125 -1.328125 -0.3125 -0.5625 L -0.3125 -0.328125 L 0 -0.328125 C -0.03125 -0.671875 -0.03125 -1.453125 -0.03125 -1.84375 C -0.03125 -2.25 -0.03125 -3.15625 0 -3.515625 L -0.3125 -3.515625 L -0.3125 -3.1875 C -0.3125 -2.25 -0.4375 -2.25 -0.78125 -2.25 L -6.078125 -2.25 C -6.40625 -2.25 -6.46875 -2.265625 -6.46875 -2.734375 L -6.46875 -3.765625 C -6.46875 -5.1875 -5.875 -5.390625 -4.53125 -5.546875 L -4.53125 -5.796875 Z M -6.78125 -5.515625 "
           id="path15" />
      </g>
      <g
         id="glyph-4-1">
        <path
           d="M -3.265625 -6.84375 C -3.265625 -7 -3.265625 -7.1875 -3.453125 -7.1875 C -3.65625 -7.1875 -3.65625 -7 -3.65625 -6.859375 L -3.65625 -0.890625 C -3.65625 -0.75 -3.65625 -0.5625 -3.453125 -0.5625 C -3.265625 -0.5625 -3.265625 -0.75 -3.265625 -0.890625 Z M -1.328125 -6.859375 C -1.328125 -7 -1.328125 -7.1875 -1.53125 -7.1875 C -1.71875 -7.1875 -1.71875 -7 -1.71875 -6.84375 L -1.71875 -0.890625 C -1.71875 -0.75 -1.71875 -0.5625 -1.53125 -0.5625 C -1.328125 -0.5625 -1.328125 -0.75 -1.328125 -0.890625 Z M -1.328125 -6.859375 "
           id="path16" />
      </g>
      <g
         id="glyph-5-0">
        <path
           d="M -2.328125 -4.875 C -2.671875 -5.015625 -2.75 -5.25 -2.75 -5.46875 L -3 -5.46875 C -2.984375 -5.28125 -2.96875 -5.15625 -2.96875 -4.96875 C -2.96875 -4.75 -2.984375 -4.484375 -3 -4.28125 L -2.75 -4.28125 C -2.75 -4.515625 -2.609375 -4.640625 -2.453125 -4.640625 C -2.390625 -4.640625 -2.375 -4.640625 -2.28125 -4.59375 L -0.546875 -3.921875 L -2.453125 -3.171875 C -2.484375 -3.15625 -2.53125 -3.140625 -2.578125 -3.140625 C -2.734375 -3.140625 -2.75 -3.3125 -2.75 -3.515625 L -3 -3.515625 C -2.984375 -3.265625 -2.96875 -3.015625 -2.96875 -2.765625 C -2.96875 -2.5625 -2.984375 -2.34375 -3 -2.140625 L -2.75 -2.140625 C -2.75 -2.3125 -2.75 -2.453125 -2.703125 -2.546875 C -2.625 -2.640625 -2.390625 -2.703125 -2.390625 -2.703125 C -2.375 -2.703125 -2.328125 -2.6875 -2.3125 -2.671875 L -0.640625 -2.015625 L -2.453125 -1.3125 C -2.546875 -1.28125 -2.546875 -1.28125 -2.578125 -1.28125 C -2.75 -1.28125 -2.75 -1.53125 -2.75 -1.65625 L -3 -1.65625 C -3 -1.640625 -2.96875 -1.140625 -2.96875 -0.859375 C -2.96875 -0.640625 -2.984375 -0.421875 -3 -0.203125 L -2.75 -0.203125 C -2.75 -0.484375 -2.75 -0.640625 -2.546875 -0.703125 L -0.09375 -1.671875 C 0.015625 -1.71875 0.0625 -1.734375 0.0625 -1.875 C 0.0625 -2 0.015625 -2.015625 -0.078125 -2.046875 L -2.0625 -2.84375 L -0.09375 -3.609375 C 0 -3.65625 0.0625 -3.671875 0.0625 -3.8125 C 0.0625 -3.9375 0.015625 -3.953125 -0.09375 -4 Z M -2.328125 -4.875 "
           id="path17" />
      </g>
      <g
         id="glyph-5-1">
        <path
           d="M -1.875 -3.109375 C -2.234375 -3.109375 -2.5 -3.109375 -2.765625 -2.78125 C -3 -2.5 -3.109375 -2.171875 -3.109375 -1.75 C -3.109375 -1.09375 -2.859375 -0.625 -2.4375 -0.625 C -2.203125 -0.625 -2.09375 -0.78125 -2.09375 -0.96875 C -2.09375 -1.15625 -2.234375 -1.296875 -2.421875 -1.296875 C -2.53125 -1.296875 -2.6875 -1.234375 -2.734375 -1.046875 C -2.90625 -1.296875 -2.90625 -1.703125 -2.90625 -1.734375 C -2.90625 -2.125 -2.65625 -2.5625 -2.0625 -2.5625 L -1.859375 -2.5625 C -1.84375 -2.171875 -1.8125 -1.71875 -1.625 -1.203125 C -1.40625 -0.578125 -1.015625 -0.390625 -0.703125 -0.390625 C -0.109375 -0.390625 0.0625 -1.109375 0.0625 -1.609375 C 0.0625 -2.15625 -0.25 -2.484375 -0.515625 -2.640625 C -0.234375 -2.65625 0.03125 -2.84375 0.03125 -3.171875 C 0.03125 -3.1875 0.03125 -3.859375 -0.625 -3.859375 L -1.015625 -3.859375 L -1.015625 -3.625 L -0.640625 -3.625 C -0.5625 -3.625 -0.234375 -3.625 -0.234375 -3.359375 C -0.234375 -3.109375 -0.5625 -3.109375 -0.640625 -3.109375 Z M -0.984375 -2.5625 C -0.3125 -2.5625 -0.125 -1.96875 -0.125 -1.65625 C -0.125 -1.296875 -0.359375 -0.96875 -0.703125 -0.96875 C -1.09375 -0.96875 -1.625 -1.296875 -1.671875 -2.5625 Z M -0.984375 -2.5625 "
           id="path18" />
      </g>
      <g
         id="glyph-5-2">
        <path
           d="M -4.84375 -1.4375 L -4.765625 -0.390625 L -4.515625 -0.390625 C -4.515625 -0.859375 -4.453125 -0.90625 -4.125 -0.90625 L -0.546875 -0.90625 C -0.25 -0.90625 -0.25 -0.84375 -0.25 -0.390625 L 0 -0.390625 C 0 -0.40625 -0.03125 -0.890625 -0.03125 -1.171875 C -0.03125 -1.4375 -0.015625 -1.6875 0 -1.953125 L -0.25 -1.953125 C -0.25 -1.5 -0.25 -1.4375 -0.546875 -1.4375 Z M -4.84375 -1.4375 "
           id="path19" />
      </g>
      <g
         id="glyph-6-0">
        <path
           d="M -0.015625 -2.03125 C -0.671875 -2.03125 -1.0625 -1.78125 -1.0625 -1.390625 C -1.0625 -1.0625 -0.8125 -0.859375 -0.53125 -0.859375 C -0.265625 -0.859375 0 -1.0625 0 -1.390625 C 0 -1.5 -0.046875 -1.640625 -0.125 -1.734375 C -0.15625 -1.765625 -0.15625 -1.78125 -0.15625 -1.78125 C -0.15625 -1.796875 -0.15625 -1.796875 -0.015625 -1.796875 C 0.734375 -1.796875 1.328125 -1.453125 1.65625 -1.125 C 1.765625 -1.015625 1.78125 -1.015625 1.8125 -1.015625 C 1.890625 -1.015625 1.921875 -1.0625 1.921875 -1.109375 C 1.921875 -1.21875 1.15625 -2.03125 -0.015625 -2.03125 Z M -0.015625 -2.03125 "
           id="path20" />
      </g>
      <g
         id="glyph-7-0">
        <path
           d="M -3.15625 -5.609375 C -3.4375 -5.6875 -3.921875 -5.796875 -3.984375 -5.796875 C -4.203125 -5.796875 -4.421875 -5.640625 -4.421875 -5.328125 C -4.421875 -5.171875 -4.34375 -4.8125 -3.890625 -4.671875 C -3.765625 -4.640625 -1.953125 -4.1875 -1.625 -4.109375 C -1.390625 -4.046875 -1.109375 -3.984375 -0.921875 -3.953125 C -0.6875 -3.78125 -0.28125 -3.390625 -0.28125 -2.875 C -0.28125 -2.296875 -0.78125 -2.28125 -1 -2.28125 C -1.609375 -2.28125 -2.390625 -2.59375 -3.109375 -2.875 C -3.375 -2.96875 -3.4375 -3 -3.609375 -3 C -4.1875 -3 -4.5 -2.421875 -4.5 -1.875 C -4.5 -0.8125 -3.15625 -0.3125 -2.953125 -0.3125 C -2.8125 -0.3125 -2.8125 -0.46875 -2.8125 -0.5625 C -2.8125 -0.671875 -2.8125 -0.75 -2.9375 -0.78125 C -4.046875 -1.109375 -4.140625 -1.65625 -4.140625 -1.8125 C -4.140625 -1.890625 -4.140625 -1.984375 -3.9375 -1.984375 C -3.703125 -1.984375 -3.421875 -1.859375 -3.3125 -1.828125 C -2.265625 -1.40625 -1.703125 -1.21875 -1.21875 -1.21875 C -0.078125 -1.21875 0.078125 -2.21875 0.078125 -2.796875 C 0.078125 -3.09375 0.046875 -3.53125 -0.46875 -4.0625 C 0.015625 -4.390625 0.078125 -4.96875 0.078125 -5.203125 C 0.078125 -5.578125 -0.125 -5.859375 -0.484375 -6.078125 C -0.890625 -6.3125 -1.421875 -6.453125 -1.46875 -6.453125 C -1.609375 -6.453125 -1.609375 -6.296875 -1.609375 -6.203125 C -1.609375 -6.09375 -1.609375 -6.0625 -1.5625 -6.015625 C -1.546875 -5.984375 -1.53125 -5.984375 -1.28125 -5.9375 C -0.5 -5.734375 -0.28125 -5.515625 -0.28125 -5.25 C -0.28125 -5.109375 -0.375 -5.03125 -0.640625 -5.03125 C -0.8125 -5.03125 -0.984375 -5.0625 -1.375 -5.15625 C -1.65625 -5.234375 -2.046875 -5.328125 -2.265625 -5.390625 Z M -3.15625 -5.609375 "
           id="path21" />
      </g>
      <g
         id="glyph-8-0">
        <path
           d="M -3.1875 -5.28125 C -4.140625 -5.28125 -6.53125 -5.265625 -6.53125 -2.859375 C -6.53125 -0.453125 -4.15625 -0.453125 -3.1875 -0.453125 C -2.1875 -0.453125 0.109375 -0.453125 0.109375 -2.859375 C 0.109375 -5.25 -2.1875 -5.28125 -3.1875 -5.28125 Z M -0.25 -2.859375 C -0.25 -2.5 -0.46875 -1.9375 -1.203125 -1.8125 C -1.71875 -1.71875 -2.75 -1.71875 -3.296875 -1.71875 C -4.015625 -1.71875 -4.671875 -1.71875 -5.1875 -1.796875 C -6.078125 -1.921875 -6.171875 -2.625 -6.171875 -2.859375 C -6.171875 -3.234375 -5.984375 -3.640625 -5.546875 -3.828125 C -5.171875 -4 -4.109375 -4 -3.296875 -4 C -2.734375 -4 -1.828125 -4 -1.3125 -3.921875 C -0.390625 -3.78125 -0.25 -3.15625 -0.25 -2.859375 Z M -0.25 -2.859375 "
           id="path22" />
      </g>
      <g
         id="glyph-9-0">
        <path
           d="M 6.78125 5.515625 L 6.78125 0.328125 L 6.46875 0.328125 L 6.46875 0.5625 C 6.46875 1.328125 6.359375 1.359375 6 1.359375 L 0.78125 1.359375 C 0.421875 1.359375 0.3125 1.328125 0.3125 0.5625 L 0.3125 0.328125 L 0 0.328125 C 0.03125 0.671875 0.03125 1.453125 0.03125 1.84375 C 0.03125 2.25 0.03125 3.15625 0 3.515625 L 0.3125 3.515625 L 0.3125 3.1875 C 0.3125 2.25 0.4375 2.25 0.78125 2.25 L 6.078125 2.25 C 6.40625 2.25 6.46875 2.265625 6.46875 2.734375 L 6.46875 3.765625 C 6.46875 5.1875 5.875 5.390625 4.53125 5.546875 L 4.53125 5.796875 Z M 6.78125 5.515625 "
           id="path23" />
      </g>
      <g
         id="glyph-9-1">
        <path
           d="M 3.265625 6.84375 C 3.265625 7 3.265625 7.1875 3.453125 7.1875 C 3.65625 7.1875 3.65625 7 3.65625 6.859375 L 3.65625 0.890625 C 3.65625 0.75 3.65625 0.5625 3.453125 0.5625 C 3.265625 0.5625 3.265625 0.75 3.265625 0.890625 Z M 1.328125 6.859375 C 1.328125 7 1.328125 7.1875 1.53125 7.1875 C 1.71875 7.1875 1.71875 7 1.71875 6.84375 L 1.71875 0.890625 C 1.71875 0.75 1.71875 0.5625 1.53125 0.5625 C 1.328125 0.5625 1.328125 0.75 1.328125 0.890625 Z M 1.328125 6.859375 "
           id="path24" />
      </g>
      <g
         id="glyph-10-0">
        <path
           d="M 2.328125 4.875 C 2.671875 5.015625 2.75 5.25 2.75 5.46875 L 3 5.46875 C 2.984375 5.28125 2.96875 5.15625 2.96875 4.96875 C 2.96875 4.75 2.984375 4.484375 3 4.28125 L 2.75 4.28125 C 2.75 4.515625 2.609375 4.640625 2.453125 4.640625 C 2.390625 4.640625 2.375 4.640625 2.28125 4.59375 L 0.546875 3.921875 L 2.453125 3.171875 C 2.484375 3.15625 2.53125 3.140625 2.578125 3.140625 C 2.734375 3.140625 2.75 3.3125 2.75 3.515625 L 3 3.515625 C 2.984375 3.265625 2.96875 3.015625 2.96875 2.765625 C 2.96875 2.5625 2.984375 2.34375 3 2.140625 L 2.75 2.140625 C 2.75 2.3125 2.75 2.453125 2.703125 2.546875 C 2.625 2.640625 2.390625 2.703125 2.390625 2.703125 C 2.375 2.703125 2.328125 2.6875 2.3125 2.671875 L 0.640625 2.015625 L 2.453125 1.3125 C 2.546875 1.28125 2.546875 1.28125 2.578125 1.28125 C 2.75 1.28125 2.75 1.53125 2.75 1.65625 L 3 1.65625 C 3 1.640625 2.96875 1.140625 2.96875 0.859375 C 2.96875 0.640625 2.984375 0.421875 3 0.203125 L 2.75 0.203125 C 2.75 0.484375 2.75 0.640625 2.546875 0.703125 L 0.09375 1.671875 C -0.015625 1.71875 -0.0625 1.734375 -0.0625 1.875 C -0.0625 2 -0.015625 2.015625 0.078125 2.046875 L 2.0625 2.84375 L 0.09375 3.609375 C 0 3.65625 -0.0625 3.671875 -0.0625 3.8125 C -0.0625 3.9375 -0.015625 3.953125 0.09375 4 Z M 2.328125 4.875 "
           id="path25" />
      </g>
      <g
         id="glyph-10-1">
        <path
           d="M 1.875 3.109375 C 2.234375 3.109375 2.5 3.109375 2.765625 2.78125 C 3 2.5 3.109375 2.171875 3.109375 1.75 C 3.109375 1.09375 2.859375 0.625 2.4375 0.625 C 2.203125 0.625 2.09375 0.78125 2.09375 0.96875 C 2.09375 1.15625 2.234375 1.296875 2.421875 1.296875 C 2.53125 1.296875 2.6875 1.234375 2.734375 1.046875 C 2.90625 1.296875 2.90625 1.703125 2.90625 1.734375 C 2.90625 2.125 2.65625 2.5625 2.0625 2.5625 L 1.859375 2.5625 C 1.84375 2.171875 1.8125 1.71875 1.625 1.203125 C 1.40625 0.578125 1.015625 0.390625 0.703125 0.390625 C 0.109375 0.390625 -0.0625 1.109375 -0.0625 1.609375 C -0.0625 2.15625 0.25 2.484375 0.515625 2.640625 C 0.234375 2.65625 -0.03125 2.84375 -0.03125 3.171875 C -0.03125 3.1875 -0.03125 3.859375 0.625 3.859375 L 1.015625 3.859375 L 1.015625 3.625 L 0.640625 3.625 C 0.5625 3.625 0.234375 3.625 0.234375 3.359375 C 0.234375 3.109375 0.5625 3.109375 0.640625 3.109375 Z M 0.984375 2.5625 C 0.3125 2.5625 0.125 1.96875 0.125 1.65625 C 0.125 1.296875 0.359375 0.96875 0.703125 0.96875 C 1.09375 0.96875 1.625 1.296875 1.671875 2.5625 Z M 0.984375 2.5625 "
           id="path26" />
      </g>
      <g
         id="glyph-10-2">
        <path
           d="M 4.84375 1.4375 L 4.765625 0.390625 L 4.515625 0.390625 C 4.515625 0.859375 4.453125 0.90625 4.125 0.90625 L 0.546875 0.90625 C 0.25 0.90625 0.25 0.84375 0.25 0.390625 L 0 0.390625 C 0 0.40625 0.03125 0.890625 0.03125 1.171875 C 0.03125 1.4375 0.015625 1.6875 0 1.953125 L 0.25 1.953125 C 0.25 1.5 0.25 1.4375 0.546875 1.4375 Z M 4.84375 1.4375 "
           id="path27" />
      </g>
      <g
         id="glyph-11-0">
        <path
           d="M 0.015625 2.03125 C 0.671875 2.03125 1.0625 1.78125 1.0625 1.390625 C 1.0625 1.0625 0.8125 0.859375 0.53125 0.859375 C 0.265625 0.859375 0 1.0625 0 1.390625 C 0 1.5 0.046875 1.640625 0.125 1.734375 C 0.15625 1.765625 0.15625 1.78125 0.15625 1.78125 C 0.15625 1.796875 0.15625 1.796875 0.015625 1.796875 C -0.734375 1.796875 -1.328125 1.453125 -1.65625 1.125 C -1.765625 1.015625 -1.78125 1.015625 -1.8125 1.015625 C -1.890625 1.015625 -1.921875 1.0625 -1.921875 1.109375 C -1.921875 1.21875 -1.15625 2.03125 0.015625 2.03125 Z M 0.015625 2.03125 "
           id="path28" />
      </g>
      <g
         id="glyph-12-0">
        <path
           d="M 3.15625 5.609375 C 3.4375 5.6875 3.921875 5.796875 3.984375 5.796875 C 4.203125 5.796875 4.421875 5.640625 4.421875 5.328125 C 4.421875 5.171875 4.34375 4.8125 3.890625 4.671875 C 3.765625 4.640625 1.953125 4.1875 1.625 4.109375 C 1.390625 4.046875 1.109375 3.984375 0.921875 3.953125 C 0.6875 3.78125 0.28125 3.390625 0.28125 2.875 C 0.28125 2.296875 0.78125 2.28125 1 2.28125 C 1.609375 2.28125 2.390625 2.59375 3.109375 2.875 C 3.375 2.96875 3.4375 3 3.609375 3 C 4.1875 3 4.5 2.421875 4.5 1.875 C 4.5 0.8125 3.15625 0.3125 2.953125 0.3125 C 2.8125 0.3125 2.8125 0.46875 2.8125 0.5625 C 2.8125 0.671875 2.8125 0.75 2.9375 0.78125 C 4.046875 1.109375 4.140625 1.65625 4.140625 1.8125 C 4.140625 1.890625 4.140625 1.984375 3.9375 1.984375 C 3.703125 1.984375 3.421875 1.859375 3.3125 1.828125 C 2.265625 1.40625 1.703125 1.21875 1.21875 1.21875 C 0.078125 1.21875 -0.078125 2.21875 -0.078125 2.796875 C -0.078125 3.09375 -0.046875 3.53125 0.46875 4.0625 C -0.015625 4.390625 -0.078125 4.96875 -0.078125 5.203125 C -0.078125 5.578125 0.125 5.859375 0.484375 6.078125 C 0.890625 6.3125 1.421875 6.453125 1.46875 6.453125 C 1.609375 6.453125 1.609375 6.296875 1.609375 6.203125 C 1.609375 6.09375 1.609375 6.0625 1.5625 6.015625 C 1.546875 5.984375 1.53125 5.984375 1.28125 5.9375 C 0.5 5.734375 0.28125 5.515625 0.28125 5.25 C 0.28125 5.109375 0.375 5.03125 0.640625 5.03125 C 0.8125 5.03125 0.984375 5.0625 1.375 5.15625 C 1.65625 5.234375 2.046875 5.328125 2.265625 5.390625 Z M 3.15625 5.609375 "
           id="path29" />
      </g>
      <g
         id="glyph-13-0">
        <path
           d="M 3.1875 5.28125 C 4.140625 5.28125 6.53125 5.265625 6.53125 2.859375 C 6.53125 0.453125 4.15625 0.453125 3.1875 0.453125 C 2.1875 0.453125 -0.109375 0.453125 -0.109375 2.859375 C -0.109375 5.25 2.1875 5.28125 3.1875 5.28125 Z M 0.25 2.859375 C 0.25 2.5 0.46875 1.9375 1.203125 1.8125 C 1.71875 1.71875 2.75 1.71875 3.296875 1.71875 C 4.015625 1.71875 4.671875 1.71875 5.1875 1.796875 C 6.078125 1.921875 6.171875 2.625 6.171875 2.859375 C 6.171875 3.234375 5.984375 3.640625 5.546875 3.828125 C 5.171875 4 4.109375 4 3.296875 4 C 2.734375 4 1.828125 4 1.3125 3.921875 C 0.390625 3.78125 0.25 3.15625 0.25 2.859375 Z M 0.25 2.859375 "
           id="path30" />
      </g>
      <g
         id="glyph-14-0">
        <path
           d="M 5.28125 -3.1875 C 5.28125 -4.140625 5.265625 -6.53125 2.859375 -6.53125 C 0.453125 -6.53125 0.453125 -4.15625 0.453125 -3.1875 C 0.453125 -2.1875 0.453125 0.109375 2.859375 0.109375 C 5.25 0.109375 5.28125 -2.1875 5.28125 -3.1875 Z M 2.859375 -0.25 C 2.5 -0.25 1.9375 -0.46875 1.8125 -1.203125 C 1.71875 -1.71875 1.71875 -2.75 1.71875 -3.296875 C 1.71875 -4.015625 1.71875 -4.671875 1.796875 -5.1875 C 1.921875 -6.078125 2.625 -6.171875 2.859375 -6.171875 C 3.234375 -6.171875 3.640625 -5.984375 3.828125 -5.546875 C 4 -5.171875 4 -4.109375 4 -3.296875 C 4 -2.734375 4 -1.828125 3.921875 -1.3125 C 3.78125 -0.390625 3.15625 -0.25 2.859375 -0.25 Z M 2.859375 -0.25 "
           id="path31" />
      </g>
      <g
         id="glyph-15-0">
        <path
           d="M 9.5 -2.234375 L 9.1875 -2.234375 C 9.109375 -1.859375 9.03125 -1.484375 8.921875 -1.1875 C 8.84375 -0.96875 8.8125 -0.84375 7.96875 -0.84375 L 6.84375 -0.84375 C 7.015625 -1.65625 7.4375 -2.34375 8.015625 -3.234375 C 8.6875 -4.28125 9.359375 -5.328125 9.359375 -6.515625 C 9.359375 -8.484375 7.453125 -10.09375 5.0625 -10.09375 C 2.65625 -10.09375 0.78125 -8.484375 0.78125 -6.515625 C 0.78125 -5.328125 1.421875 -4.296875 2.09375 -3.25 C 2.703125 -2.328125 3.125 -1.65625 3.28125 -0.84375 L 2.15625 -0.84375 C 1.3125 -0.84375 1.28125 -0.96875 1.203125 -1.171875 C 1.09375 -1.484375 1.015625 -1.890625 0.953125 -2.234375 L 0.625 -2.234375 L 1.09375 0 L 3.3125 0 C 3.625 0 3.65625 0 3.65625 -0.265625 C 3.65625 -1.28125 3.203125 -2.53125 2.90625 -3.25 C 2.5 -4.390625 2.109375 -5.4375 2.109375 -6.53125 C 2.109375 -8.734375 3.640625 -9.8125 5.0625 -9.8125 C 6.484375 -9.8125 8.015625 -8.734375 8.015625 -6.53125 C 8.015625 -5.4375 7.609375 -4.359375 7.21875 -3.296875 C 6.96875 -2.609375 6.46875 -1.296875 6.46875 -0.265625 C 6.46875 0 6.515625 0 6.828125 0 L 9.03125 0 Z M 9.5 -2.234375 "
           id="path32" />
      </g>
      <g
         id="glyph-15-1">
        <path
           d="M 9.6875 -4.640625 C 9.890625 -4.640625 10.140625 -4.640625 10.140625 -4.90625 C 10.140625 -5.171875 9.890625 -5.171875 9.6875 -5.171875 L 1.234375 -5.171875 C 1.03125 -5.171875 0.78125 -5.171875 0.78125 -4.921875 C 0.78125 -4.640625 1.015625 -4.640625 1.234375 -4.640625 Z M 9.6875 -1.984375 C 9.890625 -1.984375 10.140625 -1.984375 10.140625 -2.234375 C 10.140625 -2.515625 9.890625 -2.515625 9.6875 -2.515625 L 1.234375 -2.515625 C 1.03125 -2.515625 0.78125 -2.515625 0.78125 -2.25 C 0.78125 -1.984375 1.015625 -1.984375 1.234375 -1.984375 Z M 9.6875 -1.984375 "
           id="path33" />
      </g>
      <g
         id="glyph-15-2">
        <path
           d="M 4.65625 3.484375 C 4.65625 3.4375 4.65625 3.40625 4.421875 3.171875 C 2.984375 1.71875 2.1875 -0.640625 2.1875 -3.578125 C 2.1875 -6.359375 2.859375 -8.75 4.515625 -10.4375 C 4.65625 -10.578125 4.65625 -10.59375 4.65625 -10.640625 C 4.65625 -10.734375 4.59375 -10.75 4.53125 -10.75 C 4.34375 -10.75 3.171875 -9.71875 2.46875 -8.3125 C 1.734375 -6.875 1.40625 -5.328125 1.40625 -3.578125 C 1.40625 -2.296875 1.609375 -0.59375 2.359375 0.953125 C 3.203125 2.671875 4.375 3.59375 4.53125 3.59375 C 4.59375 3.59375 4.65625 3.578125 4.65625 3.484375 Z M 4.65625 3.484375 "
           id="path34" />
      </g>
      <g
         id="glyph-15-3">
        <path
           d="M 6.421875 -4.59375 C 6.421875 -5.78125 6.359375 -6.9375 5.84375 -8.03125 C 5.25 -9.21875 4.21875 -9.53125 3.515625 -9.53125 C 2.6875 -9.53125 1.65625 -9.125 1.140625 -7.9375 C 0.734375 -7.03125 0.59375 -6.140625 0.59375 -4.59375 C 0.59375 -3.203125 0.6875 -2.15625 1.203125 -1.140625 C 1.765625 -0.046875 2.75 0.296875 3.5 0.296875 C 4.75 0.296875 5.46875 -0.4375 5.875 -1.28125 C 6.390625 -2.359375 6.421875 -3.765625 6.421875 -4.59375 Z M 3.5 0.015625 C 3.046875 0.015625 2.109375 -0.25 1.84375 -1.8125 C 1.671875 -2.671875 1.671875 -3.765625 1.671875 -4.765625 C 1.671875 -5.9375 1.671875 -7 1.90625 -7.84375 C 2.15625 -8.8125 2.890625 -9.25 3.5 -9.25 C 4.046875 -9.25 4.875 -8.921875 5.15625 -7.6875 C 5.328125 -6.875 5.328125 -5.734375 5.328125 -4.765625 C 5.328125 -3.796875 5.328125 -2.71875 5.171875 -1.84375 C 4.90625 -0.265625 4 0.015625 3.5 0.015625 Z M 3.5 0.015625 "
           id="path35" />
      </g>
      <g
         id="glyph-15-4">
        <path
           d="M 4.125 -9.1875 C 4.125 -9.53125 4.125 -9.53125 3.84375 -9.53125 C 3.5 -9.15625 2.78125 -8.625 1.3125 -8.625 L 1.3125 -8.203125 C 1.640625 -8.203125 2.359375 -8.203125 3.140625 -8.578125 L 3.140625 -1.109375 C 3.140625 -0.59375 3.09375 -0.421875 1.84375 -0.421875 L 1.390625 -0.421875 L 1.390625 0 C 1.78125 -0.03125 3.171875 -0.03125 3.640625 -0.03125 C 4.109375 -0.03125 5.5 -0.03125 5.875 0 L 5.875 -0.421875 L 5.4375 -0.421875 C 4.171875 -0.421875 4.125 -0.59375 4.125 -1.109375 Z M 4.125 -9.1875 "
           id="path36" />
      </g>
      <g
         id="glyph-15-5">
        <path
           d="M 4.046875 -3.578125 C 4.046875 -4.65625 3.90625 -6.4375 3.09375 -8.109375 C 2.25 -9.828125 1.078125 -10.75 0.921875 -10.75 C 0.859375 -10.75 0.78125 -10.734375 0.78125 -10.640625 C 0.78125 -10.59375 0.78125 -10.578125 1.03125 -10.328125 C 2.46875 -8.875 3.265625 -6.515625 3.265625 -3.578125 C 3.265625 -0.796875 2.59375 1.59375 0.9375 3.28125 C 0.78125 3.40625 0.78125 3.4375 0.78125 3.484375 C 0.78125 3.578125 0.859375 3.59375 0.921875 3.59375 C 1.109375 3.59375 2.28125 2.5625 2.984375 1.15625 C 3.71875 -0.296875 4.046875 -1.84375 4.046875 -3.578125 Z M 4.046875 -3.578125 "
           id="path37" />
      </g>
      <g
         id="glyph-16-0">
        <path
           d="M 2.796875 0.0625 C 2.796875 -0.78125 2.53125 -1.390625 1.9375 -1.390625 C 1.484375 -1.390625 1.25 -1.015625 1.25 -0.703125 C 1.25 -0.390625 1.46875 0 1.953125 0 C 2.140625 0 2.296875 -0.0625 2.421875 -0.1875 C 2.453125 -0.21875 2.46875 -0.21875 2.484375 -0.21875 C 2.515625 -0.21875 2.515625 -0.015625 2.515625 0.0625 C 2.515625 0.53125 2.421875 1.46875 1.59375 2.390625 C 1.4375 2.5625 1.4375 2.59375 1.4375 2.625 C 1.4375 2.703125 1.5 2.765625 1.578125 2.765625 C 1.6875 2.765625 2.796875 1.703125 2.796875 0.0625 Z M 2.796875 0.0625 "
           id="path38" />
      </g>
    </g>
  </defs>
  <path
     fill-rule="nonzero"
     fill="rgb(92.939758%, 96.076965%, 98.039246%)"
     fill-opacity="1"
     d="M 30.410156 165.9375 L 30.410156 46.878906 L 183.484375 46.878906 L 183.484375 165.9375 Z M 30.410156 165.9375 "
     id="path39" />
  <path
     fill="none"
     stroke-width="1.19553"
     stroke-linecap="butt"
     stroke-linejoin="miter"
     stroke="rgb(20.391846%, 28.625488%, 36.863708%)"
     stroke-opacity="1"
     stroke-miterlimit="10"
     d="M -0.00084375 119.057094 L -0.00084375 -0.0015 L 153.073375 -0.0015 L 153.073375 119.057094 "
     transform="matrix(1, 0, 0, -1, 30.411, 165.936)"
     id="path40" />
  <path
     fill="none"
     stroke-width="2.39105"
     stroke-linecap="butt"
     stroke-linejoin="miter"
     stroke="rgb(76.861572%, 27.842712%, 22.744751%)"
     stroke-opacity="1"
     stroke-miterlimit="10"
     d="M -0.00084375 119.057094 L 153.073375 119.057094 "
     transform="matrix(1, 0, 0, -1, 30.411, 165.936)"
     id="path41" />
  <path
     fill="none"
     stroke-width="1.49442"
     stroke-linecap="butt"
     stroke-linejoin="miter"
     stroke="rgb(76.861572%, 27.842712%, 22.744751%)"
     stroke-opacity="1"
     stroke-miterlimit="10"
     d="M 38.268687 136.631313 L 105.839 136.631313 "
     transform="matrix(1, 0, 0, -1, 30.411, 165.936)"
     id="path42" />
  <path
     fill-rule="nonzero"
     fill="rgb(76.861572%, 27.842712%, 22.744751%)"
     fill-opacity="1"
     stroke-width="1.49442"
     stroke-linecap="butt"
     stroke-linejoin="miter"
     stroke="rgb(76.861572%, 27.842712%, 22.744751%)"
     stroke-opacity="1"
     stroke-miterlimit="10"
     d="M 5.884073 -0.0000675 C 5.161416 0.183526 1.985635 1.214776 0.00126 2.339776 L 0.00126 -2.339911 C 1.985635 -1.214911 5.161416 -0.183661 5.884073 -0.0000675 Z M 5.884073 -0.0000675 "
     transform="matrix(1, 0, 0, -1, 136.24874, 29.30462)"
     id="path43" />
  <g
     fill="rgb(14.509583%, 21.569824%, 27.450562%)"
     fill-opacity="1"
     id="g43">
    <use
       xlink:href="#glyph-0-0"
       x="85.843"
       y="20.755"
       id="use43" />
  </g>
  <g
     fill="rgb(14.509583%, 21.569824%, 27.450562%)"
     fill-opacity="1"
     id="g44">
    <use
       xlink:href="#glyph-1-0"
       x="95.395"
       y="20.755"
       id="use44" />
  </g>
  <g
     fill="rgb(14.509583%, 21.569824%, 27.450562%)"
     fill-opacity="1"
     id="g46">
    <use
       xlink:href="#glyph-1-1"
       x="105.913513"
       y="20.755"
       id="use45" />
    <use
       xlink:href="#glyph-1-2"
       x="109.787968"
       y="20.755"
       id="use46" />
  </g>
  <g
     fill="rgb(14.509583%, 21.569824%, 27.450562%)"
     fill-opacity="1"
     id="g47">
    <use
       xlink:href="#glyph-2-0"
       x="114.767"
       y="20.755"
       id="use47" />
  </g>
  <g
     fill="rgb(14.509583%, 21.569824%, 27.450562%)"
     fill-opacity="1"
     id="g49">
    <use
       xlink:href="#glyph-1-3"
       x="119.195"
       y="20.755"
       id="use48" />
    <use
       xlink:href="#glyph-1-4"
       x="124.1763"
       y="20.755"
       id="use49" />
  </g>
  <g
     fill="rgb(76.861572%, 27.842712%, 22.744751%)"
     fill-opacity="1"
     id="g50">
    <use
       xlink:href="#glyph-1-5"
       x="99.129"
       y="38.878"
       id="use50" />
  </g>
  <g
     fill="rgb(76.861572%, 27.842712%, 22.744751%)"
     fill-opacity="1"
     id="g53">
    <use
       xlink:href="#glyph-3-0"
       x="105.355"
       y="40.372"
       id="use51" />
    <use
       xlink:href="#glyph-3-1"
       x="107.610327"
       y="40.372"
       id="use52" />
    <use
       xlink:href="#glyph-3-2"
       x="109.865654"
       y="40.372"
       id="use53" />
  </g>
  <g
     fill="rgb(20.391846%, 28.625488%, 36.863708%)"
     fill-opacity="1"
     id="g54">
    <use
       xlink:href="#glyph-4-0"
       x="20.091"
       y="133.521"
       id="use54" />
  </g>
  <g
     fill="rgb(20.391846%, 28.625488%, 36.863708%)"
     fill-opacity="1"
     id="g55">
    <use
       xlink:href="#glyph-5-0"
       x="21.585"
       y="127.294"
       id="use55" />
  </g>
  <g
     fill="rgb(20.391846%, 28.625488%, 36.863708%)"
     fill-opacity="1"
     id="g58">
    <use
       xlink:href="#glyph-5-1"
       x="21.585"
       y="121.823054"
       id="use56" />
    <use
       xlink:href="#glyph-5-2"
       x="21.585"
       y="117.851475"
       id="use57" />
    <use
       xlink:href="#glyph-5-2"
       x="21.585"
       y="115.596148"
       id="use58" />
  </g>
  <g
     fill="rgb(20.391846%, 28.625488%, 36.863708%)"
     fill-opacity="1"
     id="g59">
    <use
       xlink:href="#glyph-6-0"
       x="20.091"
       y="112.842"
       id="use59" />
  </g>
  <g
     fill="rgb(20.391846%, 28.625488%, 36.863708%)"
     fill-opacity="1"
     id="g60">
    <use
       xlink:href="#glyph-7-0"
       x="20.091"
       y="105.093"
       id="use60" />
  </g>
  <g
     fill="rgb(20.391846%, 28.625488%, 36.863708%)"
     fill-opacity="1"
     id="g61">
    <use
       xlink:href="#glyph-4-1"
       x="20.091"
       y="95.541"
       id="use61" />
  </g>
  <g
     fill="rgb(20.391846%, 28.625488%, 36.863708%)"
     fill-opacity="1"
     id="g62">
    <use
       xlink:href="#glyph-8-0"
       x="20.091"
       y="85.025"
       id="use62" />
  </g>
  <g
     fill="rgb(20.391846%, 28.625488%, 36.863708%)"
     fill-opacity="1"
     id="g63">
    <use
       xlink:href="#glyph-9-0"
       x="193.803"
       y="79.296"
       id="use63" />
  </g>
  <g
     fill="rgb(20.391846%, 28.625488%, 36.863708%)"
     fill-opacity="1"
     id="g64">
    <use
       xlink:href="#glyph-10-0"
       x="192.309"
       y="85.522"
       id="use64" />
  </g>
  <g
     fill="rgb(20.391846%, 28.625488%, 36.863708%)"
     fill-opacity="1"
     id="g67">
    <use
       xlink:href="#glyph-10-1"
       x="192.309"
       y="90.992946"
       id="use65" />
    <use
       xlink:href="#glyph-10-2"
       x="192.309"
       y="94.964525"
       id="use66" />
    <use
       xlink:href="#glyph-10-2"
       x="192.309"
       y="97.219852"
       id="use67" />
  </g>
  <g
     fill="rgb(20.391846%, 28.625488%, 36.863708%)"
     fill-opacity="1"
     id="g68">
    <use
       xlink:href="#glyph-11-0"
       x="193.803"
       y="99.975"
       id="use68" />
  </g>
  <g
     fill="rgb(20.391846%, 28.625488%, 36.863708%)"
     fill-opacity="1"
     id="g69">
    <use
       xlink:href="#glyph-12-0"
       x="193.803"
       y="107.724"
       id="use69" />
  </g>
  <g
     fill="rgb(20.391846%, 28.625488%, 36.863708%)"
     fill-opacity="1"
     id="g70">
    <use
       xlink:href="#glyph-9-1"
       x="193.803"
       y="117.276"
       id="use70" />
  </g>
  <g
     fill="rgb(20.391846%, 28.625488%, 36.863708%)"
     fill-opacity="1"
     id="g71">
    <use
       xlink:href="#glyph-13-0"
       x="193.803"
       y="127.792"
       id="use71" />
  </g>
  <g
     fill="rgb(20.391846%, 28.625488%, 36.863708%)"
     fill-opacity="1"
     id="g72">
    <use
       xlink:href="#glyph-1-5"
       x="79.834"
       y="184.234"
       id="use72" />
  </g>
  <g
     fill="rgb(20.391846%, 28.625488%, 36.863708%)"
     fill-opacity="1"
     id="g73">
    <use
       xlink:href="#glyph-3-3"
       x="86.061"
       y="185.728"
       id="use73" />
  </g>
  <g
     fill="rgb(20.391846%, 28.625488%, 36.863708%)"
     fill-opacity="1"
     id="g76">
    <use
       xlink:href="#glyph-3-4"
       x="91.531946"
       y="185.728"
       id="use74" />
    <use
       xlink:href="#glyph-3-0"
       x="95.503525"
       y="185.728"
       id="use75" />
    <use
       xlink:href="#glyph-3-0"
       x="97.758852"
       y="185.728"
       id="use76" />
  </g>
  <g
     fill="rgb(20.391846%, 28.625488%, 36.863708%)"
     fill-opacity="1"
     id="g77">
    <use
       xlink:href="#glyph-2-0"
       x="100.514"
       y="184.234"
       id="use77" />
  </g>
  <g
     fill="rgb(20.391846%, 28.625488%, 36.863708%)"
     fill-opacity="1"
     id="g78">
    <use
       xlink:href="#glyph-0-0"
       x="108.263"
       y="184.234"
       id="use78" />
  </g>
  <g
     fill="rgb(20.391846%, 28.625488%, 36.863708%)"
     fill-opacity="1"
     id="g79">
    <use
       xlink:href="#glyph-1-0"
       x="117.815"
       y="184.234"
       id="use79" />
  </g>
  <g
     fill="rgb(20.391846%, 28.625488%, 36.863708%)"
     fill-opacity="1"
     id="g80">
    <use
       xlink:href="#glyph-14-0"
       x="128.331"
       y="184.234"
       id="use80" />
  </g>
  <g
     fill="rgb(14.509583%, 21.569824%, 27.450562%)"
     fill-opacity="1"
     id="g81">
    <use
       xlink:href="#glyph-15-0"
       x="74.054"
       y="110.428"
       id="use81" />
  </g>
  <g
     fill="rgb(14.509583%, 21.569824%, 27.450562%)"
     fill-opacity="1"
     id="g82">
    <use
       xlink:href="#glyph-15-1"
       x="88.187876"
       y="110.428"
       id="use82" />
  </g>
  <g
     fill="rgb(14.509583%, 21.569824%, 27.450562%)"
     fill-opacity="1"
     id="g84">
    <use
       xlink:href="#glyph-15-2"
       x="103.08784"
       y="110.428"
       id="use83" />
    <use
       xlink:href="#glyph-15-3"
       x="108.550873"
       y="110.428"
       id="use84" />
  </g>
  <g
     fill="rgb(14.509583%, 21.569824%, 27.450562%)"
     fill-opacity="1"
     id="g85">
    <use
       xlink:href="#glyph-16-0"
       x="115.581"
       y="110.428"
       id="use85" />
  </g>
  <g
     fill="rgb(14.509583%, 21.569824%, 27.450562%)"
     fill-opacity="1"
     id="g87">
    <use
       xlink:href="#glyph-15-4"
       x="121.874"
       y="110.428"
       id="use86" />
    <use
       xlink:href="#glyph-15-5"
       x="128.8979"
       y="110.428"
       id="use87" />
  </g>
  <g
     fill="rgb(14.509583%, 21.569824%, 27.450562%)"
     fill-opacity="1"
     id="g88">
    <use
       xlink:href="#glyph-1-6"
       x="134.36"
       y="105.222"
       id="use88" />
  </g>
  <path
     fill-rule="nonzero"
     fill="rgb(20.391846%, 28.625488%, 36.863708%)"
     fill-opacity="1"
     d="M 31.90625 46.878906 C 31.90625 46.054688 31.238281 45.386719 30.410156 45.386719 C 29.585938 45.386719 28.917969 46.054688 28.917969 46.878906 C 28.917969 47.703125 29.585938 48.375 30.410156 48.375 C 31.238281 48.375 31.90625 47.703125 31.90625 46.878906 Z M 31.90625 46.878906 "
     id="path88" />
  <path
     fill-rule="nonzero"
     fill="rgb(20.391846%, 28.625488%, 36.863708%)"
     fill-opacity="1"
     d="M 184.976562 46.878906 C 184.976562 46.054688 184.308594 45.386719 183.484375 45.386719 C 182.660156 45.386719 181.988281 46.054688 181.988281 46.878906 C 181.988281 47.703125 182.660156 48.375 183.484375 48.375 C 184.308594 48.375 184.976562 47.703125 184.976562 46.878906 Z M 184.976562 46.878906 "
     id="path89" />
</svg>
